<svg width="92" height="40" viewBox="0 0 92 40" fill="none" xmlns="http://www.w3.org/2000/svg">
<path d="M33.7236 21.7551H30.3809L29.7365 23.6974H27.6826L31.0656 14.7007H33.4417L36.6098 23.6974H34.3814L33.7236 21.7551ZM33.1868 20.1498L32.0457 16.7506L30.9179 20.1498H33.1868Z" fill="#6E757B"/>
<path d="M43.5773 17.4991C44.1766 18.0702 44.4767 19.0212 44.4767 20.3521C44.4767 21.4224 44.2083 22.2808 43.6713 22.9285C43.1343 23.5759 42.4003 23.8994 41.4697 23.8994C40.7895 23.8994 40.2211 23.7783 39.7648 23.5353V26.1386H37.8047V18.3152C37.8047 17.7667 38.1067 17.3531 38.7108 17.0743C39.3149 16.7956 40.0912 16.6516 41.04 16.6426C42.1319 16.6426 42.9774 16.9283 43.5773 17.4991ZM42.0872 21.8223C42.3466 21.5167 42.4763 21.0041 42.4763 20.2847C42.4763 19.6371 42.3621 19.1496 42.1341 18.821C41.9057 18.4929 41.514 18.3286 40.9593 18.3286C40.1627 18.3286 39.7647 18.4818 39.7647 18.7874V21.9975C39.9256 22.0964 40.1047 22.1684 40.3015 22.2134C40.4982 22.2586 40.6907 22.2806 40.8788 22.2806C41.4249 22.2808 41.8274 22.1282 42.0872 21.8223Z" fill="#6E757B"/>
<path d="M51.5109 17.4991C52.1105 18.0702 52.4102 19.0212 52.4102 20.3521C52.4102 21.4224 52.1419 22.2808 51.6049 22.9285C51.0679 23.5759 50.3338 23.8994 49.4031 23.8994C48.7231 23.8994 48.1549 23.7783 47.6981 23.5353V26.1386H45.7383V18.3152C45.7383 17.7667 46.0402 17.3531 46.6442 17.0743C47.2483 16.7956 48.0247 16.6516 48.9735 16.6426C50.0655 16.6426 50.9113 16.9283 51.5109 17.4991ZM50.0208 21.8223C50.2803 21.5167 50.4102 21.0041 50.4102 20.2847C50.4102 19.6371 50.2959 19.1496 50.0678 18.821C49.8395 18.4929 49.4479 18.3286 48.8929 18.3286C48.0964 18.3286 47.698 18.4818 47.698 18.7874V21.9975C47.8592 22.0964 48.0381 22.1684 48.235 22.2134C48.4321 22.2586 48.6245 22.2806 48.8124 22.2806C49.3585 22.2808 49.7612 22.1282 50.0208 21.8223Z" fill="#6E757B"/>
<path d="M54.8267 23.7714C54.5047 23.6862 54.1468 23.5623 53.7529 23.4007V21.6336C54.4779 22.182 55.2385 22.4564 56.035 22.4564C56.3393 22.4564 56.5609 22.4047 56.6996 22.3011C56.8383 22.1979 56.9078 22.0562 56.9078 21.8762C56.9078 21.6695 56.7958 21.5168 56.5721 21.4176C56.3482 21.3186 55.9902 21.2109 55.4981 21.0937C54.9789 20.986 54.5518 20.77 54.2161 20.4465C53.8803 20.1226 53.7129 19.6506 53.7129 19.03C53.7129 18.4997 53.8469 18.0634 54.1152 17.7216C54.3837 17.38 54.7218 17.1302 55.1286 16.9731C55.536 16.8156 55.9588 16.7368 56.3976 16.7368C56.9344 16.7368 57.3709 16.7841 57.7064 16.8784C58.042 16.9731 58.371 17.1192 58.6932 17.3167V18.895C58.2369 18.6433 57.8829 18.4635 57.6327 18.3553C57.3818 18.2476 57.0911 18.1938 56.7599 18.1938C56.4288 18.1938 56.1826 18.2454 56.0218 18.3488C55.8604 18.4522 55.78 18.5984 55.78 18.7873C55.78 19.012 55.8694 19.1763 56.0482 19.2794C56.2273 19.383 56.5136 19.4884 56.9076 19.5966C57.355 19.7136 57.7084 19.828 57.968 19.9404C58.2277 20.053 58.4602 20.2461 58.6663 20.5204C58.8722 20.795 58.9746 21.1794 58.9746 21.6734C58.9569 22.4471 58.6663 23.0115 58.1025 23.3665C57.5385 23.7215 56.8226 23.8992 55.9543 23.8992C55.5248 23.8995 55.1489 23.8571 54.8267 23.7714Z" fill="#6E757B"/>
<path d="M60.5459 14.3901H62.6132V15.9413H60.5459V14.3901ZM60.5863 16.9665H62.5863L62.5999 23.6972H60.5863V16.9665Z" fill="#6E757B"/>
<path d="M66.5063 14.2959H64.5195V23.6974H66.5063V14.2959Z" fill="#6E757B"/>
<path d="M68.8964 22.9823C68.3234 22.3707 68.0371 21.4628 68.0371 20.2576C68.0371 18.9986 68.3211 18.0814 68.8896 17.5057C69.4581 16.9304 70.3193 16.6426 71.4738 16.6426C72.6283 16.6426 73.4963 16.9371 74.0782 17.5259C74.6601 18.1151 74.9506 19.0258 74.9506 20.2576C74.9506 21.4446 74.6508 22.3482 74.0513 22.9685C73.4518 23.5891 72.5926 23.8991 71.4739 23.8991C70.328 23.8991 69.469 23.5938 68.8964 22.9823ZM72.5881 21.7748C72.8386 21.4288 72.964 20.923 72.964 20.2575C72.964 19.529 72.8409 19.0097 72.5949 18.6995C72.3486 18.3893 71.9751 18.234 71.4738 18.234C70.9545 18.234 70.5812 18.3893 70.3529 18.6995C70.1244 19.0097 70.0105 19.529 70.0105 20.2575C70.0105 20.9501 70.1289 21.4627 70.3663 21.7949C70.6031 22.1277 70.9727 22.294 71.4738 22.294C71.966 22.2943 72.3373 22.121 72.5881 21.7748Z" fill="#6E757B"/>
<path d="M77.7966 16.9264C78.5125 16.7645 79.1523 16.6836 79.7163 16.6836C80.6739 16.6836 81.3947 16.8725 81.8776 17.2502C82.3607 17.6279 82.6026 18.2483 82.6026 19.1114V23.6975H80.6024V19.5163C80.6024 18.7337 80.1637 18.3427 79.2868 18.3427C79.09 18.3427 78.8885 18.3652 78.6827 18.4101C78.4768 18.4551 78.3156 18.5093 78.1995 18.5721V23.6975H76.1992V17.4522C76.5482 17.2635 77.0805 17.0881 77.7966 16.9264Z" fill="#6E757B"/>
<path d="M1.43066 9.18262V30.8551L20.1109 20.0188L1.43066 9.18262ZM7.25985 20.0178L2.11891 28.9653V11.0711L7.25985 20.0178ZM7.65696 20.0178L7.65681 20.0177H7.65696V20.0178ZM7.85574 20.3632L18.139 20.3644L2.7151 29.3114L7.85574 20.3632ZM7.85544 19.6716L2.71526 10.7263L18.1379 19.6727L7.85544 19.6716Z" fill="#B3B8BA"/>
<path d="M0.919974 8.29466C0.066557 8.78995 -0.226242 9.89081 0.266854 10.7487C0.759798 11.6064 1.85499 11.9021 2.70841 11.4066C3.56243 10.9114 3.85599 9.8105 3.36335 8.95256C2.8698 8.09463 1.77385 7.79891 0.919974 8.29466Z" fill="#0099F9"/>
<path d="M6.76278 18.4616C5.90921 18.9562 5.61656 20.0575 6.10966 20.9154C6.60215 21.773 7.69735 22.0683 8.55091 21.5738C9.40478 21.0783 9.69864 19.9767 9.2057 19.1192C8.7126 18.2608 7.61665 17.9663 6.76278 18.4616Z" fill="#0099F9"/>
<path d="M0.892864 28.5939C0.0389928 29.0891 -0.253655 30.1905 0.239743 31.0489C0.732687 31.9059 1.82743 32.2013 2.681 31.706C3.53532 31.211 3.82888 30.1097 3.33578 29.2522C2.84269 28.3937 1.74673 28.0984 0.892864 28.5939Z" fill="#0099F9"/>
<path d="M18.4307 18.4201C17.5773 18.915 17.2845 20.0163 17.7776 20.8742C18.2705 21.7323 19.3657 22.0276 20.2188 21.5321C21.0732 21.0369 21.3667 19.936 20.8736 19.0781C20.3805 18.2201 19.2846 17.9244 18.4307 18.4201Z" fill="#0099F9"/>
</svg>
